<?xml version="1.0" encoding="utf-8"?>
<!-- Generator: Adobe Illustrator 27.5.0, SVG Export Plug-In . SVG Version: 6.00 Build 0)  -->
<svg version="1.1" id="Layer_1" xmlns="http://www.w3.org/2000/svg" xmlns:xlink="http://www.w3.org/1999/xlink" x="0px" y="0px"
	 viewBox="0 0 100 100" style="enable-background:new 0 0 100 100;" xml:space="preserve">
<style type="text/css">
	.st0{fill:none;stroke:#CA0606;stroke-miterlimit:10;}
</style>
<g>
	<g>
		<path class="st0" d="M73.5,63.8l11.5,0"/>
		<path class="st0" d="M38.3,78.1c-1.6,0.3-5.2,0.5-7.5-3.3l-9.6-16.3h-5.8"/>
		<path class="st0" d="M47.7,61.2l5.8,10.3"/>
		<path class="st0" d="M39.4,67.9l3.7,6.4"/>
		<path class="st0" d="M60.9,73.8c-1.7,0.7-4.9,2-7.5-2.4"/>
		<path class="st0" d="M49.2,76.5c0,0-3.5,2.4-6.1-2.2"/>
		<path class="st0" d="M15.3,25.3h19"/>
		<path class="st0" d="M1.2,19.9H15v44.6H1.1"/>
		<path class="st0" d="M98.9,23.7H85.1v44.6H99"/>
		<path class="st0" d="M74.6,65.6L59.1,36.3c-1.3-0.1-8-0.7-8-0.7l-9.2,9.2c-7.7,5.8-11.8-2.7-11.8-2.7l11.8-15.2
			c3.9-4.9,7.9-5,7.9-5l17.7,0l17.4,7.5"/>
		<path class="st0" d="M75.7,64.4c-0.7,2-5.2,13.5-11.1,3.4l-8.1-12.6"/>
		<path class="st0" d="M97,57.2c0,0.6-0.5,1-1,1s-1-0.5-1-1c0-0.6,0.5-1,1-1S97,56.6,97,57.2z"/>
		<path class="st0" d="M5.2,53.2c0,0.6-0.5,1-1,1s-1-0.5-1-1c0-0.6,0.5-1,1-1S5.2,52.6,5.2,53.2z"/>
	</g>
</g>
</svg>
